<?xml version="1.0" standalone="no"?>
<!DOCTYPE svg PUBLIC "-//W3C//DTD SVG 20010904//EN"
 "http://www.w3.org/TR/2001/REC-SVG-20010904/DTD/svg10.dtd">
<svg version="1.0" xmlns="http://www.w3.org/2000/svg"
 width="1170.000000pt" height="1170.000000pt" viewBox="0 0 1170.000000 1170.000000"
 preserveAspectRatio="xMidYMid meet">
<metadata>
Created by potrace 1.11, written by Peter Selinger 2001-2013
</metadata>
<g transform="translate(0.000000,1170.000000) scale(0.100000,-0.100000)"
fill="#000000" stroke="none">
<path d="M1430 11689 c-748 -85 -1338 -680 -1419 -1431 -15 -132 -15 -8685 -1
-8813 24 -214 70 -369 165 -560 153 -307 408 -561 719 -717 121 -61 295 -119
431 -144 97 -18 249 -19 4540 -19 l4440 0 101 22 c655 146 1121 612 1267 1267
l22 101 0 4440 c0 4291 -1 4443 -19 4540 -92 498 -414 927 -861 1150 -191 95
-346 141 -560 165 -112 12 -8715 11 -8825 -1z m4491 -4631 c541 -705 987
-1286 991 -1292 4 -6 8 366 8 827 l0 837 -235 0 -235 0 0 455 0 455 990 0 990
0 0 -455 0 -455 -235 0 -235 0 -2 -2042 -3 -2043 -437 -3 -436 -2 -1069 1389
-1068 1390 -3 -922 c-1 -507 0 -928 3 -934 3 -10 61 -13 240 -13 l235 0 -2
-452 -3 -453 -987 -3 -988 -2 0 455 0 455 235 0 235 0 0 1590 0 1590 -235 0
-235 0 0 455 0 455 749 0 748 0 984 -1282z"/>
</g>
</svg>
